<?xml version="1.0" encoding="utf-8"?>
<!-- Generator: Adobe Illustrator 26.0.1, SVG Export Plug-In . SVG Version: 6.00 Build 0)  -->
<svg version="1.1" id="Layer_1" xmlns="http://www.w3.org/2000/svg" xmlns:xlink="http://www.w3.org/1999/xlink" x="0px" y="0px"
	 viewBox="0 0 1080 566.81" style="enable-background:new 0 0 1080 566.81;" xml:space="preserve">
<style type="text/css">
	.st0{display:none;fill:#FFFFFF;}
	.st1{fill:url(#SVGID_1_);}
	.st2{fill:url(#SVGID_00000026853892623341246510000004010499905466065560_);}
	.st3{fill:url(#SVGID_00000060716787384474960080000000591398954315210376_);}
	.st4{fill:url(#SVGID_00000161604334310089072780000011672787472414337704_);}
	.st5{fill:url(#SVGID_00000111172517953133438910000008647392076446111905_);}
	.st6{fill:url(#SVGID_00000129186143276319379480000009835072197597694340_);}
	.st7{fill:url(#SVGID_00000052081050125007135600000004656521933506660538_);}
	.st8{fill:#303030;}
	.st9{fill:url(#SVGID_00000121241880346626200300000006791484078844055727_);}
	.st10{fill:url(#SVGID_00000044879266714851307440000007402752718080608700_);}
	.st11{fill:url(#SVGID_00000144295506515278827980000010321253414472858540_);}
	.st12{fill:url(#SVGID_00000105426648295462479810000004064676488472243379_);}
	.st13{fill:url(#SVGID_00000129889402683852914870000016918037238294427806_);}
	.st14{fill:url(#SVGID_00000150083378815115188260000013851517628670621363_);}
	.st15{fill:url(#SVGID_00000089562088242739679860000000153299599739998109_);}
</style>
<g>
	<g>
		<g>
			<linearGradient id="SVGID_1_" gradientUnits="userSpaceOnUse" x1="744.0775" y1="-214.1889" x2="89.3981" y2="345.9571">
				<stop  offset="0" style="stop-color:#2156CC"/>
				<stop  offset="1" style="stop-color:#002D91"/>
			</linearGradient>
			<polyline class="st1" points="362.32,150.25 362.32,169.88 362.32,235.01 319.65,291.33 319.65,217.77 256.92,299.69 
				192.8,216.88 192.8,359.24 151.73,359.24 151.73,150.25 192.8,150.25 192.8,150.25 199.94,150.25 256.24,230.78 312.5,150.25 			
				"/>
		</g>
		
			<linearGradient id="SVGID_00000026873665937755534480000006999589118640844678_" gradientUnits="userSpaceOnUse" x1="940.962" y1="15.9229" x2="286.2825" y2="576.0689">
			<stop  offset="0" style="stop-color:#2156CC"/>
			<stop  offset="1" style="stop-color:#002D91"/>
		</linearGradient>
		<path style="fill:url(#SVGID_00000026873665937755534480000006999589118640844678_);" d="M626.6,66.62c0,0,30.98,66.3,138.8,84.27
			c36.67,6.11,57.5,15.45,69.02,25.11c14.44,12.11,10,35.69-7.92,41.53c-9.62,3.13-22.7,9.58-38.02,22.74
			c-33,28.35-64.13,24.17-64.13,24.17s71.92-1.86,123.33-29.74c22.49-12.2,52.04-2.43,78.17,12.43c0,0,6.81-33.09-45.78-39.87
			c-4.75-0.61-7.99-5.16-6.88-9.82c4.33-18.04,5.42-58.1-65.19-69.16C715.98,113.87,688.25,112.32,626.6,66.62z"/>
		
			<linearGradient id="SVGID_00000050641850240738266110000016966473367296107692_" gradientUnits="userSpaceOnUse" x1="1009.208" y1="95.6866" x2="354.5286" y2="655.8325">
			<stop  offset="0" style="stop-color:#2156CC"/>
			<stop  offset="1" style="stop-color:#002D91"/>
		</linearGradient>
		<path style="fill:url(#SVGID_00000050641850240738266110000016966473367296107692_);" d="M500.47,397.11
			c0,0,35.55-38.28,141.85-31.79c61.37,3.75,111.99-0.3,145.66-14.09c26.71-10.94,42.22-38.39,40.34-67.19
			c-0.88-13.45,1.67-30.1,16.98-38.77c28.27-16,80.82,9.37,80.82,9.37s-17.63-1.3-35.28-0.1c-18.01,1.23-30.65,18.21-27.21,35.93
			c3.49,17.96,5.26,42.49-3.93,63.25c-16.78,37.92-134.14,49.16-194.83,37.93S500.47,397.11,500.47,397.11z"/>
		<g>
			
				<linearGradient id="SVGID_00000041262492282626006560000017363976698428705164_" gradientUnits="userSpaceOnUse" x1="836.6835" y1="-105.9542" x2="182.004" y2="454.1918">
				<stop  offset="0" style="stop-color:#2156CC"/>
				<stop  offset="1" style="stop-color:#002D91"/>
			</linearGradient>
			<polyline style="fill:url(#SVGID_00000041262492282626006560000017363976698428705164_);" points="276.31,356.99 330.45,356.99 
				445.94,200.21 480.08,242.06 537.9,242.06 474.21,151.38 427.95,151.38 			"/>
			
				<linearGradient id="SVGID_00000082365113437501714910000017225843977546139326_" gradientUnits="userSpaceOnUse" x1="905.2548" y1="-25.8104" x2="250.5754" y2="534.3356">
				<stop  offset="0" style="stop-color:#2156CC"/>
				<stop  offset="1" style="stop-color:#002D91"/>
			</linearGradient>
			<polygon style="fill:url(#SVGID_00000082365113437501714910000017225843977546139326_);" points="403.53,359.24 465.54,260.93 
				666.97,260.93 621.19,306.71 487.71,306.71 450.12,359.24 			"/>
			
				<linearGradient id="SVGID_00000160159333119140616860000007923597028280624038_" gradientUnits="userSpaceOnUse" x1="889.8217" y1="-43.8481" x2="235.1422" y2="516.2979">
				<stop  offset="0" style="stop-color:#2156CC"/>
				<stop  offset="1" style="stop-color:#002D91"/>
			</linearGradient>
			<polygon style="fill:url(#SVGID_00000160159333119140616860000007923597028280624038_);" points="559.11,149.45 746.41,149.45 
				707.85,201.5 515.42,201.5 			"/>
			
				<linearGradient id="SVGID_00000063591306932518717960000015775140781685122449_" gradientUnits="userSpaceOnUse" x1="947.6868" y1="23.7827" x2="293.0074" y2="583.9287">
				<stop  offset="0" style="stop-color:#2156CC"/>
				<stop  offset="1" style="stop-color:#002D91"/>
			</linearGradient>
			<polygon style="fill:url(#SVGID_00000063591306932518717960000015775140781685122449_);" points="537.18,322.62 590.19,322.62 
				616.85,359.24 554.53,359.24 			"/>
		</g>
	</g>
	<g>
		<g>
			<g>
				<g>
					<path class="st8" d="M143.2,423.59h16.64l19.32,61.53h-14.72l-8.05-31.16c-1.71-6.15-3.35-13.43-5-19.85h-0.38
						c-1.49,6.5-3.13,13.69-4.84,19.85l-8.08,31.16h-14.22L143.2,423.59z M136.62,459.65h29.61v10.81h-29.61V459.65z"/>
					<path class="st8" d="M179.16,454.71c0-20.42,13.5-32.25,29.04-32.25c7.95,0,14.36,3.74,18.5,7.99l-7.33,8.92
						c-3.09-2.88-6.41-4.9-10.86-4.9c-8.44,0-15.1,7.44-15.1,19.78c0,12.65,5.89,20,14.88,20c5.05,0,9.03-2.49,12.04-5.75l7.33,8.73
						c-5.11,5.94-11.91,9.03-19.87,9.03C192.19,486.25,179.16,475.43,179.16,454.71z"/>
					<path class="st8" d="M230.33,454.71c0-20.42,13.5-32.25,29.04-32.25c7.95,0,14.36,3.74,18.5,7.99l-7.33,8.92
						c-3.09-2.88-6.41-4.9-10.86-4.9c-8.44,0-15.1,7.44-15.1,19.78c0,12.65,5.88,20,14.88,20c5.05,0,9.03-2.49,12.04-5.75l7.33,8.73
						c-5.11,5.94-11.91,9.03-19.87,9.03C243.36,486.25,230.33,475.43,230.33,454.71z"/>
					<path class="st8" d="M281.5,454.08c0-20.1,11.35-31.63,27.95-31.63c16.59,0,27.95,11.61,27.95,31.63
						c0,20.1-11.35,32.16-27.95,32.16C292.85,486.25,281.5,474.19,281.5,454.08z M323.14,454.08c0-12.34-5.3-19.62-13.69-19.62
						c-8.39,0-13.69,7.28-13.69,19.62c0,12.34,5.3,20.15,13.69,20.15C317.84,474.24,323.14,466.42,323.14,454.08z"/>
					<path class="st8" d="M344.87,456.6v-33.02h13.91v34.44c0,12.05,3.8,16.21,10.68,16.21c6.92,0,10.9-4.17,10.9-16.21v-34.44
						h13.41v33.02c0,20.66-8.4,29.65-24.31,29.65S344.87,477.26,344.87,456.6z"/>
					<path class="st8" d="M404.22,423.59h14.25l16.05,30.6l6.09,13.52h0.38c-0.66-6.51-1.78-15.13-1.78-22.38v-21.74h13.26v61.53
						h-14.26l-16.05-30.68L416.08,441h-0.38c0.66,6.79,1.78,15.03,1.78,22.28v21.84h-13.25V423.59z"/>
					<path class="st8" d="M475.27,435.25h-16.94v-11.67h47.78v11.67h-16.94v49.86h-13.91V435.25z"/>
					<path class="st8" d="M524.14,454.71c0-20.42,13.5-32.25,29.04-32.25c7.95,0,14.36,3.74,18.5,7.99l-7.33,8.92
						c-3.09-2.88-6.41-4.9-10.86-4.9c-8.44,0-15.1,7.44-15.1,19.78c0,12.65,5.89,20,14.88,20c5.05,0,9.03-2.49,12.04-5.75l7.33,8.73
						c-5.11,5.94-11.91,9.03-19.87,9.03C537.17,486.25,524.14,475.43,524.14,454.71z"/>
					<path class="st8" d="M578.22,423.59h22.16c13.05,0,23.75,4.53,23.75,19.16c0,14.14-10.7,20.23-23.75,20.23h-8.25v22.14h-13.91
						V423.59z M599.25,451.93c7.32,0,11.25-3.13,11.25-9.18c0-6.08-3.93-8.12-11.25-8.12h-7.12v17.3H599.25z M597.84,459.31
						l9.62-8.9l19.64,34.71h-15.57L597.84,459.31z"/>
					<path class="st8" d="M632.32,423.59h38.55v11.67h-24.64v12.35h20.98v11.67h-20.98v14.18h25.59v11.67h-39.5V423.59z"/>
					<path class="st8" d="M691.73,423.59h16.65l19.32,61.53h-14.72l-8.05-31.16c-1.71-6.15-3.35-13.43-5-19.85h-0.38
						c-1.49,6.5-3.13,13.69-4.84,19.85l-8.08,31.16H672.4L691.73,423.59z M685.14,459.65h29.61v10.81h-29.61V459.65z"/>
					<path class="st8" d="M742.64,435.25H725.7v-11.67h47.78v11.67h-16.94v49.86h-13.91V435.25z"/>
					<path class="st8" d="M776.41,454.08c0-20.1,11.35-31.63,27.95-31.63s27.95,11.61,27.95,31.63c0,20.1-11.35,32.16-27.95,32.16
						S776.41,474.19,776.41,454.08z M818.04,454.08c0-12.34-5.3-19.62-13.69-19.62s-13.69,7.28-13.69,19.62
						c0,12.34,5.3,20.15,13.69,20.15S818.04,466.42,818.04,454.08z"/>
					<path class="st8" d="M840.12,423.59h22.16c13.05,0,23.75,4.53,23.75,19.16c0,14.14-10.7,20.23-23.75,20.23h-8.25v22.14h-13.91
						V423.59z M861.14,451.93c7.32,0,11.25-3.13,11.25-9.18c0-6.08-3.93-8.12-11.25-8.12h-7.12v17.3H861.14z M859.73,459.31
						l9.62-8.9l19.64,34.71h-15.57L859.73,459.31z"/>
				</g>
			</g>
		</g>
	</g>
</g>
</svg>
